{"title":"Its Kind Of A Funny Story 2010.720p.x264.Feel-Free","uid":6133157,"size":1990958604,"categoryP":"video","categoryS":"hd___movies","magnet":"?xt=urn:btih:1c33a2398a01efab7f655d96d3053ba850e35a42&amp;dn=Its+Kind+Of+A+Funny+Story+2010.720p.x264.Feel-Free&amp;tr=udp%3A%2F%2Ftracker.openbittorrent.com%3A80&amp;tr=udp%3A%2F%2Fopen.demonii.com%3A1337&amp;tr=udp%3A%2F%2Ftracker.coppersurfer.tk%3A6969&amp;tr=udp%3A%2F%2Fexodus.desync.com%3A6969","seeders":0,"leechers":1,"uploader":"neon","files":-1,"time":1296206693,"description":"Genre:Comedy | Drama\nLanguage:English\n &lt;a href=&quot; http://www.imdb.com/title/tt0804497/&quot; rel=&quot;nofollow&quot; target=&quot;_NEW&quot;&gt; http://www.imdb.com/title/tt0804497/&lt;/a&gt;\nSource:BluRay.x264-REFiNED\nSubtitles:Romana\n\n\nFormat : MPEG-4\nFormat profile : Base Media\nCodec ID : isom\nFile size : 1.85 GiB\nDuration : 1h 41mn\nOverall bit rate : 2 612 Kbps\nMovie name : Its.Kind.Of.A.Funny.Story.2010.720p.x264.Feel-Free\n\n\nVideo\nFormat settings, CABAC : Yes\nFormat settings, ReFrames : 4 frames\nFormat settings, GOP : M=1, N=16\nCodec ID : avc1\nCodec ID/Info : Advanced Video Coding\nDuration : 1h 41mn\nBit rate mode : Variable\nBit rate : 2 200 Kbps\nWidth : 1 280 pixels\nHeight : 688 pixels\nDisplay aspect ratio : 1.860\nFrame rate mode : Constant\nFrame rate : 23.976 fps\nColor space : YUV\nChroma subsampling : 4:2:0\nBit depth : 8 bits\nScan type : Progressive\nBits/(Pixel*Frame) : 0.104\nStream size : 1.57 GiB (85%)\nWriting library : x264\n\nAudio\nID : 2\nFormat : AAC\nFormat/Info : Advanced Audio Codec\nFormat version : Version 4\nFormat profile : LC\nCodec ID : 40\nDuration : 1h 41mn\nBit rate mode : Variable\nBit rate : 384 Kbps\nChannel(s) : 6 channels\nChannel positions : Front: L C R, Side: L R, LFE\nSampling rate : 48.0 KHz\nStream size : 278 MiB (15%)\n\n\nPlot:\nA clinically depressed teenager gets a new start after he checks himself into an adult psychiatric ward.\n &lt;a href=&quot;\nhttp://shareimage.org/images/1los0sprjfebnm5egxs.png&quot; rel=&quot;nofollow&quot; target=&quot;_NEW&quot;&gt;\nhttp://shareimage.org/images/1los0sprjfebnm5egxs.png&lt;/a&gt; &lt;a href=&quot;\nhttp://shareimage.org/images/h4u2y8toids77hum1sxt.png&quot; rel=&quot;nofollow&quot; target=&quot;_NEW&quot;&gt;\nhttp://shareimage.org/images/h4u2y8toids77hum1sxt.png&lt;/a&gt; &lt;a href=&quot;\nhttp://shareimage.org/images/8jhjcviu4lb41ucdm9a0.png&quot; rel=&quot;nofollow&quot; target=&quot;_NEW&quot;&gt;\nhttp://shareimage.org/images/8jhjcviu4lb41ucdm9a0.png&lt;/a&gt; &lt;a href=&quot;\nhttp://shareimage.org/images/72jgrndptekbi7wfvi96.png&quot; rel=&quot;nofollow&quot; target=&quot;_NEW&quot;&gt;\nhttp://shareimage.org/images/72jgrndptekbi7wfvi96.png&lt;/a&gt;","torrent":{"xt":"urn:btih:1c33a2398a01efab7f655d96d3053ba850e35a42","amp;dn":"Its+Kind+Of+A+Funny+Story+2010.720p.x264.Feel-Free","amp;tr":["udp%3A%2F%2Ftracker.openbittorrent.com%3A80","udp%3A%2F%2Fopen.demonii.com%3A1337","udp%3A%2F%2Ftracker.coppersurfer.tk%3A6969","udp%3A%2F%2Fexodus.desync.com%3A6969"],"infoHash":"1c33a2398a01efab7f655d96d3053ba850e35a42","infoHashBuffer":{"type":"Buffer","data":[28,51,162,57,138,1,239,171,127,101,93,150,211,5,59,168,80,227,90,66]},"announce":[],"urlList":[]}}